<svg width="330" height="99" viewBox="0 0 330 99" fill="none" xmlns="http://www.w3.org/2000/svg">
<rect y="26" width="330" height="55" rx="27.5" fill="white"/>
<path d="M50.912 60.6575H51.0408V60.915H47.3576V60.6575H47.4864C47.6238 60.6575 47.744 60.6145 47.847 60.5287C47.95 60.4257 48.0359 60.3055 48.1045 60.1681C48.1904 60.0307 48.2505 59.8848 48.2848 59.7302C48.3192 59.5757 48.3364 59.4297 48.3364 59.2924V45.5126C48.3364 45.3924 48.3192 45.255 48.2848 45.1005C48.2505 44.9459 48.199 44.8 48.1303 44.6626C48.0616 44.5252 47.9672 44.4136 47.847 44.3278C47.744 44.2247 47.6238 44.1732 47.4864 44.1732H47.3576V43.9156H57.2482V46.311H56.9906C56.9906 45.9161 56.8532 45.5727 56.5785 45.2808C56.3209 44.9717 55.9088 44.8171 55.3422 44.8171H50.0621V51.3336H54.3377C54.7326 51.3336 55.0588 51.2134 55.3164 50.973C55.5911 50.7326 55.7285 50.4493 55.7285 50.123H55.9861V53.3426H55.7285C55.7285 53.0335 55.5997 52.7674 55.3422 52.5441C55.0846 52.3209 54.7498 52.2093 54.3377 52.2093H50.0621V59.2924C50.0621 59.4297 50.0792 59.5757 50.1136 59.7302C50.1479 59.8848 50.1994 60.0307 50.2681 60.1681C50.354 60.3055 50.4484 60.4257 50.5514 60.5287C50.6545 60.6145 50.7747 60.6575 50.912 60.6575ZM60.3122 43.9156H63.9954V44.1732H63.8666C63.7464 44.1732 63.6348 44.2247 63.5318 44.3278C63.4287 44.4136 63.3429 44.5252 63.2742 44.6626C63.2055 44.7828 63.1454 44.9287 63.0939 45.1005C63.0596 45.255 63.0424 45.3924 63.0424 45.5126V59.2409C63.0424 59.3782 63.0596 59.5328 63.0939 59.7045C63.1283 59.859 63.1798 60.005 63.2485 60.1423C63.3343 60.2797 63.4202 60.3999 63.506 60.5029C63.609 60.606 63.7292 60.6575 63.8666 60.6575H63.9954V60.915H60.3122V60.6575H60.441C60.5783 60.6575 60.6985 60.6145 60.8016 60.5287C60.9046 60.4257 60.9905 60.3055 61.0591 60.1681C61.145 60.0136 61.2051 59.859 61.2394 59.7045C61.2738 59.5328 61.2909 59.3782 61.2909 59.2409V45.5126C61.2909 45.3924 61.2738 45.255 61.2394 45.1005C61.2051 44.9459 61.145 44.8 61.0591 44.6626C60.9905 44.5252 60.9046 44.4136 60.8016 44.3278C60.6985 44.2247 60.5783 44.1732 60.441 44.1732H60.3122V43.9156ZM70.207 60.6575H70.3358V60.915H67.4768V60.6575H67.6056C67.7257 60.6575 67.8374 60.606 67.9404 60.5029C68.0606 60.3999 68.155 60.2797 68.2237 60.1423C68.2924 60.005 68.3439 59.859 68.3783 59.7045C68.4298 59.5328 68.4555 59.3782 68.4555 59.2409V45.5126C68.4555 45.3924 68.4383 45.255 68.404 45.1005C68.3868 44.9459 68.3439 44.8 68.2752 44.6626C68.2065 44.5252 68.1121 44.4136 67.9919 44.3278C67.8717 44.2247 67.7257 44.1732 67.554 44.1732H67.4253V43.9156H70.0267L79.3763 58.6485V45.5126C79.3763 45.3924 79.3506 45.255 79.2991 45.1005C79.2647 44.9459 79.2046 44.8 79.1188 44.6626C79.0501 44.5252 78.9642 44.4136 78.8612 44.3278C78.7582 44.2247 78.638 44.1732 78.5006 44.1732H78.3718V43.9156H81.2566V44.1732H81.1278C80.9904 44.1732 80.8702 44.2247 80.7672 44.3278C80.6642 44.4136 80.5697 44.5252 80.4839 44.6626C80.4152 44.8 80.3637 44.9459 80.3293 45.1005C80.295 45.255 80.2778 45.3924 80.2778 45.5126V60.915H78.6809L69.357 46.1307V59.2409C69.357 59.3782 69.3742 59.5328 69.4085 59.7045C69.4429 59.859 69.4944 60.005 69.5631 60.1423C69.6489 60.2797 69.7434 60.3999 69.8464 60.5029C69.9494 60.606 70.0696 60.6575 70.207 60.6575ZM84.6804 60.6575H84.8092C84.9294 60.6575 85.041 60.606 85.144 60.5029C85.247 60.3999 85.3329 60.2797 85.4016 60.1423C85.4874 60.005 85.5475 59.859 85.5819 59.7045C85.6162 59.5328 85.6334 59.3782 85.6334 59.2409V45.5126C85.6334 45.3924 85.6162 45.255 85.5819 45.1005C85.5475 44.9459 85.496 44.8 85.4273 44.6626C85.3587 44.5252 85.2728 44.4136 85.1698 44.3278C85.0668 44.2247 84.9466 44.1732 84.8092 44.1732H84.6804V43.9156H89.6514C91.008 43.9156 92.2271 44.156 93.3089 44.6368C94.3907 45.1005 95.3007 45.7358 96.0391 46.5428C96.7946 47.3327 97.3698 48.2428 97.7648 49.273C98.1597 50.3033 98.3572 51.3765 98.3572 52.4926C98.3572 53.5401 98.1683 54.5703 97.7905 55.5834C97.4128 56.5793 96.8461 57.4722 96.0906 58.2621C95.3351 59.052 94.3907 59.6959 93.2574 60.1939C92.1241 60.6746 90.8105 60.915 89.3166 60.915H84.6804V60.6575ZM96.6057 52.879C96.6057 51.78 96.4083 50.7412 96.0133 49.7624C95.6184 48.7837 95.0603 47.9337 94.3391 47.2125C93.6351 46.4741 92.7937 45.8903 91.815 45.461C90.8534 45.0318 89.806 44.8171 88.6727 44.8171H87.3591V60.0136H88.7242C89.6514 60.0136 90.5787 59.8762 91.5059 59.6014C92.4503 59.3095 93.3003 58.8717 94.0558 58.2879C94.8114 57.6869 95.4209 56.9399 95.8845 56.047C96.3653 55.1541 96.6057 54.0981 96.6057 52.879ZM108.247 43.9156H111.802V44.1732C111.681 44.1904 111.57 44.2419 111.467 44.3278C111.364 44.4136 111.312 44.5424 111.312 44.7141C111.312 44.8 111.338 44.8944 111.389 44.9974L115.253 51.7714L118.962 45.358C119.031 45.2207 119.074 45.1176 119.091 45.0489C119.125 44.9803 119.142 44.8944 119.142 44.7914C119.108 44.5166 119.005 44.3449 118.833 44.2762C118.679 44.2076 118.584 44.1732 118.55 44.1732V43.9156H121.306V44.1732C121.048 44.1732 120.782 44.3363 120.507 44.6626C120.25 44.9717 120.027 45.2893 119.838 45.6156L115.82 52.5699V59.2409C115.82 59.3782 115.837 59.5242 115.871 59.6787C115.923 59.8333 115.983 59.9878 116.051 60.1423C116.12 60.2797 116.206 60.3999 116.309 60.5029C116.412 60.606 116.532 60.6575 116.67 60.6575H116.798V60.915H113.115V60.6575H113.244C113.381 60.6575 113.501 60.6145 113.605 60.5287C113.708 60.4257 113.793 60.3055 113.862 60.1681C113.948 60.0136 114.008 59.859 114.042 59.7045C114.077 59.5328 114.094 59.3782 114.094 59.2409V52.8017L109.947 45.6929C109.861 45.5555 109.758 45.4009 109.638 45.2292C109.518 45.0575 109.389 44.8944 109.252 44.7399C109.114 44.5853 108.968 44.4565 108.814 44.3535C108.659 44.2333 108.513 44.1732 108.376 44.1732H108.247V43.9156ZM130.333 43.6581C131.672 43.6581 132.874 43.8985 133.939 44.3793C135.003 44.8429 135.905 45.4782 136.643 46.2853C137.399 47.0751 137.974 48.0024 138.369 49.067C138.781 50.1144 138.987 51.2134 138.987 52.3638C138.987 53.6517 138.747 54.8365 138.266 55.9182C137.802 57 137.158 57.9273 136.334 58.7C135.51 59.4727 134.548 60.0822 133.449 60.5287C132.368 60.958 131.209 61.1726 129.972 61.1726C128.65 61.1726 127.457 60.9322 126.392 60.4514C125.345 59.9706 124.452 59.3353 123.713 58.5454C122.992 57.7556 122.434 56.8455 122.039 55.8152C121.644 54.785 121.447 53.7118 121.447 52.5956C121.447 51.4967 121.644 50.4149 122.039 49.3503C122.434 48.2685 123.009 47.3069 123.765 46.4656C124.538 45.6242 125.473 44.9459 126.572 44.4308C127.671 43.9156 128.925 43.6581 130.333 43.6581ZM130.307 60.2711C131.458 60.2196 132.462 59.962 133.321 59.4984C134.196 59.0176 134.926 58.4166 135.51 57.6955C136.094 56.9571 136.523 56.1501 136.798 55.2743C137.09 54.3986 137.236 53.5315 137.236 52.6729C137.236 51.7285 137.064 50.7755 136.721 49.8139C136.377 48.8523 135.888 47.9852 135.252 47.2125C134.617 46.4226 133.853 45.7873 132.96 45.3065C132.084 44.8085 131.097 44.5596 129.998 44.5596C128.933 44.5596 127.98 44.8 127.139 45.2808C126.298 45.7444 125.576 46.3454 124.975 47.0837C124.392 47.8221 123.945 48.6463 123.636 49.5564C123.327 50.4664 123.173 51.3593 123.173 52.235C123.173 53.1795 123.353 54.1325 123.713 55.094C124.074 56.0384 124.572 56.897 125.207 57.6697C125.843 58.4424 126.59 59.0691 127.448 59.5499C128.324 60.0307 129.277 60.2711 130.307 60.2711ZM142.277 43.9156H145.935V44.1732H145.806C145.669 44.1732 145.548 44.2247 145.445 44.3278C145.342 44.4136 145.248 44.5252 145.162 44.6626C145.093 44.8 145.042 44.9459 145.008 45.1005C144.973 45.255 144.956 45.3924 144.956 45.5126V55.6864C144.956 56.3561 145.025 56.9743 145.162 57.5409C145.299 58.1076 145.531 58.5969 145.857 59.009C146.184 59.4212 146.613 59.7474 147.145 59.9878C147.678 60.211 148.33 60.3226 149.103 60.3226C149.961 60.3226 150.648 60.1853 151.163 59.9105C151.678 59.6358 152.073 59.2838 152.348 58.8545C152.623 58.4081 152.803 57.9101 152.889 57.3606C152.975 56.8111 153.018 56.2703 153.018 55.738V45.5126C153.018 45.3924 153.001 45.255 152.966 45.1005C152.932 44.9459 152.872 44.8 152.786 44.6626C152.717 44.5252 152.631 44.4136 152.528 44.3278C152.425 44.2247 152.314 44.1732 152.194 44.1732H152.065V43.9156H154.872V44.1732H154.744C154.606 44.1732 154.486 44.2247 154.383 44.3278C154.297 44.4136 154.211 44.5252 154.125 44.6626C154.057 44.8 154.005 44.9459 153.971 45.1005C153.936 45.255 153.919 45.3924 153.919 45.5126V55.6607C153.919 56.7768 153.782 57.6955 153.507 58.4166C153.232 59.1207 152.855 59.6787 152.374 60.0908C151.893 60.5029 151.326 60.7863 150.674 60.9408C150.039 61.0953 149.36 61.1726 148.639 61.1726C147.866 61.1726 147.145 61.0868 146.476 60.915C145.823 60.7605 145.256 60.4772 144.776 60.0651C144.295 59.653 143.917 59.0949 143.642 58.3909C143.368 57.6697 143.23 56.7682 143.23 55.6864V45.5126C143.23 45.3924 143.213 45.255 143.179 45.1005C143.144 44.9459 143.084 44.8 142.998 44.6626C142.93 44.5252 142.844 44.4136 142.741 44.3278C142.638 44.2247 142.526 44.1732 142.406 44.1732H142.277V43.9156ZM161.852 60.6575H161.981V60.915H158.349V60.6575H158.478C158.598 60.6575 158.71 60.606 158.813 60.5029C158.916 60.3999 159.002 60.2797 159.07 60.1423C159.156 60.005 159.216 59.859 159.251 59.7045C159.285 59.5328 159.302 59.3782 159.302 59.2409V45.5126C159.302 45.3924 159.285 45.255 159.251 45.1005C159.216 44.9459 159.156 44.8 159.07 44.6626C159.002 44.5252 158.916 44.4136 158.813 44.3278C158.71 44.2247 158.598 44.1732 158.478 44.1732H158.349V43.9156H162.831C164.548 43.9156 165.87 44.2505 166.797 44.9202C167.742 45.5898 168.214 46.5772 168.214 47.8822C168.214 48.5347 168.102 49.1099 167.879 49.6079C167.673 50.0887 167.39 50.5094 167.029 50.8699C166.668 51.2134 166.239 51.4967 165.741 51.7199C165.26 51.926 164.745 52.0805 164.196 52.1835L166.05 55.0168C166.497 55.7036 166.952 56.3819 167.415 57.0515C167.879 57.704 168.334 58.3823 168.78 59.0863C168.901 59.258 169.029 59.4383 169.167 59.6272C169.321 59.8161 169.476 59.9878 169.63 60.1423C169.802 60.2969 169.974 60.4257 170.146 60.5287C170.334 60.6145 170.523 60.6575 170.712 60.6575V60.915H169.605C168.918 60.915 168.351 60.7519 167.905 60.4257C167.475 60.0822 167.115 59.6873 166.823 59.2409C166.05 58.1076 165.278 56.9571 164.505 55.7895C163.749 54.6218 162.994 53.4714 162.238 52.3381C162.049 52.3209 161.843 52.3037 161.62 52.2866C161.414 52.2522 161.217 52.2179 161.028 52.1835V59.2409C161.028 59.3782 161.045 59.5328 161.079 59.7045C161.114 59.859 161.165 60.005 161.234 60.1423C161.32 60.2797 161.406 60.3999 161.491 60.5029C161.594 60.606 161.715 60.6575 161.852 60.6575ZM161.028 44.7914V51.3336H161.157C161.294 51.3507 161.509 51.3679 161.8 51.3851C162.11 51.3851 162.487 51.3851 162.934 51.3851C163.294 51.3851 163.672 51.3336 164.067 51.2305C164.479 51.1103 164.857 50.9215 165.2 50.6639C165.561 50.3892 165.853 50.0371 166.076 49.6079C166.316 49.1786 166.437 48.6377 166.437 47.9852C166.437 47.3327 166.308 46.8004 166.05 46.3883C165.81 45.9762 165.466 45.6499 165.02 45.4095C164.591 45.1691 164.067 45.006 163.449 44.9202C162.831 44.8343 162.152 44.7914 161.414 44.7914H161.028ZM181.783 43.9156H185.492V44.1732H185.363C185.225 44.1732 185.105 44.2247 185.002 44.3278C184.899 44.4136 184.805 44.5338 184.719 44.6883C184.65 44.8257 184.59 44.9717 184.539 45.1262C184.504 45.2808 184.487 45.4181 184.487 45.5383V59.8848C184.487 60.4342 184.418 60.9408 184.281 61.4044C184.144 61.868 183.955 62.2973 183.714 62.6922C183.491 63.1044 183.234 63.4735 182.942 63.7998C182.667 64.1432 182.375 64.4523 182.066 64.727C181.362 65.3624 180.555 65.8947 179.645 66.3239L179.516 66.1179C180.117 65.6886 180.649 65.1821 181.113 64.5982C181.508 64.1003 181.877 63.4907 182.22 62.7695C182.564 62.0483 182.736 61.2155 182.736 60.2711V45.5383C182.736 45.4181 182.718 45.2808 182.684 45.1262C182.65 44.9717 182.59 44.8257 182.504 44.6883C182.435 44.5338 182.349 44.4136 182.246 44.3278C182.143 44.2247 182.032 44.1732 181.911 44.1732H181.783V43.9156ZM197.662 43.6581C199.002 43.6581 200.204 43.8985 201.268 44.3793C202.333 44.8429 203.234 45.4782 203.973 46.2853C204.728 47.0751 205.303 48.0024 205.698 49.067C206.111 50.1144 206.317 51.2134 206.317 52.3638C206.317 53.6517 206.076 54.8365 205.595 55.9182C205.132 57 204.488 57.9273 203.664 58.7C202.839 59.4727 201.878 60.0822 200.779 60.5287C199.697 60.958 198.538 61.1726 197.302 61.1726C195.98 61.1726 194.786 60.9322 193.722 60.4514C192.674 59.9706 191.781 59.3353 191.043 58.5454C190.322 57.7556 189.764 56.8455 189.369 55.8152C188.974 54.785 188.776 53.7118 188.776 52.5956C188.776 51.4967 188.974 50.4149 189.369 49.3503C189.764 48.2685 190.339 47.3069 191.094 46.4656C191.867 45.6242 192.803 44.9459 193.902 44.4308C195.001 43.9156 196.254 43.6581 197.662 43.6581ZM197.637 60.2711C198.787 60.2196 199.792 59.962 200.65 59.4984C201.526 59.0176 202.256 58.4166 202.839 57.6955C203.423 56.9571 203.853 56.1501 204.127 55.2743C204.419 54.3986 204.565 53.5315 204.565 52.6729C204.565 51.7285 204.393 50.7755 204.05 49.8139C203.707 48.8523 203.217 47.9852 202.582 47.2125C201.947 46.4226 201.182 45.7873 200.29 45.3065C199.414 44.8085 198.426 44.5596 197.328 44.5596C196.263 44.5596 195.31 44.8 194.469 45.2808C193.627 45.7444 192.906 46.3454 192.305 47.0837C191.721 47.8221 191.275 48.6463 190.966 49.5564C190.657 50.4664 190.502 51.3593 190.502 52.235C190.502 53.1795 190.682 54.1325 191.043 55.094C191.403 56.0384 191.901 56.897 192.537 57.6697C193.172 58.4424 193.919 59.0691 194.778 59.5499C195.653 60.0307 196.606 60.2711 197.637 60.2711ZM209.607 43.9156H213.264V44.1732H213.135C212.998 44.1732 212.878 44.2247 212.775 44.3278C212.672 44.4136 212.577 44.5252 212.492 44.6626C212.423 44.8 212.371 44.9459 212.337 45.1005C212.303 45.255 212.285 45.3924 212.285 45.5126V55.6864C212.285 56.3561 212.354 56.9743 212.492 57.5409C212.629 58.1076 212.861 58.5969 213.187 59.009C213.513 59.4212 213.943 59.7474 214.475 59.9878C215.007 60.211 215.66 60.3226 216.432 60.3226C217.291 60.3226 217.978 60.1853 218.493 59.9105C219.008 59.6358 219.403 59.2838 219.678 58.8545C219.952 58.4081 220.133 57.9101 220.219 57.3606C220.304 56.8111 220.347 56.2703 220.347 55.738V45.5126C220.347 45.3924 220.33 45.255 220.296 45.1005C220.261 44.9459 220.201 44.8 220.116 44.6626C220.047 44.5252 219.961 44.4136 219.858 44.3278C219.755 44.2247 219.643 44.1732 219.523 44.1732H219.394V43.9156H222.202V44.1732H222.073C221.936 44.1732 221.815 44.2247 221.712 44.3278C221.627 44.4136 221.541 44.5252 221.455 44.6626C221.386 44.8 221.335 44.9459 221.3 45.1005C221.266 45.255 221.249 45.3924 221.249 45.5126V55.6607C221.249 56.7768 221.111 57.6955 220.837 58.4166C220.562 59.1207 220.184 59.6787 219.703 60.0908C219.223 60.5029 218.656 60.7863 218.003 60.9408C217.368 61.0953 216.69 61.1726 215.969 61.1726C215.196 61.1726 214.475 61.0868 213.805 60.915C213.153 60.7605 212.586 60.4772 212.105 60.0651C211.624 59.653 211.247 59.0949 210.972 58.3909C210.697 57.6697 210.56 56.7682 210.56 55.6864V45.5126C210.56 45.3924 210.543 45.255 210.508 45.1005C210.474 44.9459 210.414 44.8 210.328 44.6626C210.259 44.5252 210.173 44.4136 210.07 44.3278C209.967 44.2247 209.856 44.1732 209.736 44.1732H209.607V43.9156ZM229.181 60.6575H229.31V60.915H225.679V60.6575H225.807C225.928 60.6575 226.039 60.606 226.142 60.5029C226.245 60.3999 226.331 60.2797 226.4 60.1423C226.486 60.005 226.546 59.859 226.58 59.7045C226.614 59.5328 226.632 59.3782 226.632 59.2409V45.5126C226.632 45.3924 226.614 45.255 226.58 45.1005C226.546 44.9459 226.486 44.8 226.4 44.6626C226.331 44.5252 226.245 44.4136 226.142 44.3278C226.039 44.2247 225.928 44.1732 225.807 44.1732H225.679V43.9156H230.16C231.877 43.9156 233.199 44.2505 234.127 44.9202C235.071 45.5898 235.543 46.5772 235.543 47.8822C235.543 48.5347 235.432 49.1099 235.209 49.6079C235.002 50.0887 234.719 50.5094 234.359 50.8699C233.998 51.2134 233.569 51.4967 233.071 51.7199C232.59 51.926 232.075 52.0805 231.525 52.1835L233.38 55.0168C233.826 55.7036 234.281 56.3819 234.745 57.0515C235.209 57.704 235.664 58.3823 236.11 59.0863C236.23 59.258 236.359 59.4383 236.496 59.6272C236.651 59.8161 236.805 59.9878 236.96 60.1423C237.132 60.2969 237.303 60.4257 237.475 60.5287C237.664 60.6145 237.853 60.6575 238.042 60.6575V60.915H236.934C236.247 60.915 235.681 60.7519 235.234 60.4257C234.805 60.0822 234.444 59.6873 234.152 59.2409C233.38 58.1076 232.607 56.9571 231.834 55.7895C231.079 54.6218 230.323 53.4714 229.568 52.3381C229.379 52.3209 229.173 52.3037 228.95 52.2866C228.744 52.2522 228.546 52.2179 228.357 52.1835V59.2409C228.357 59.3782 228.374 59.5328 228.409 59.7045C228.443 59.859 228.495 60.005 228.563 60.1423C228.649 60.2797 228.735 60.3999 228.821 60.5029C228.924 60.606 229.044 60.6575 229.181 60.6575ZM228.357 44.7914V51.3336H228.486C228.623 51.3507 228.838 51.3679 229.13 51.3851C229.439 51.3851 229.817 51.3851 230.263 51.3851C230.624 51.3851 231.002 51.3336 231.397 51.2305C231.809 51.1103 232.186 50.9215 232.53 50.6639C232.89 50.3892 233.182 50.0371 233.406 49.6079C233.646 49.1786 233.766 48.6377 233.766 47.9852C233.766 47.3327 233.637 46.8004 233.38 46.3883C233.139 45.9762 232.796 45.6499 232.35 45.4095C231.92 45.1691 231.397 45.006 230.778 44.9202C230.16 44.8343 229.482 44.7914 228.744 44.7914H228.357ZM243.323 60.6575H243.452V60.915H240.593V60.6575H240.721C240.842 60.6575 240.953 60.606 241.056 60.5029C241.176 60.3999 241.271 60.2797 241.34 60.1423C241.408 60.005 241.46 59.859 241.494 59.7045C241.546 59.5328 241.571 59.3782 241.571 59.2409V45.5126C241.571 45.3924 241.554 45.255 241.52 45.1005C241.503 44.9459 241.46 44.8 241.391 44.6626C241.322 44.5252 241.228 44.4136 241.108 44.3278C240.988 44.2247 240.842 44.1732 240.67 44.1732H240.541V43.9156H243.143L252.492 58.6485V45.5126C252.492 45.3924 252.466 45.255 252.415 45.1005C252.381 44.9459 252.321 44.8 252.235 44.6626C252.166 44.5252 252.08 44.4136 251.977 44.3278C251.874 44.2247 251.754 44.1732 251.616 44.1732H251.488V43.9156H254.372V44.1732H254.244C254.106 44.1732 253.986 44.2247 253.883 44.3278C253.78 44.4136 253.686 44.5252 253.6 44.6626C253.531 44.8 253.48 44.9459 253.445 45.1005C253.411 45.255 253.394 45.3924 253.394 45.5126V60.915H251.797L242.473 46.1307V59.2409C242.473 59.3782 242.49 59.5328 242.524 59.7045C242.559 59.859 242.61 60.005 242.679 60.1423C242.765 60.2797 242.859 60.3999 242.962 60.5029C243.065 60.606 243.185 60.6575 243.323 60.6575ZM257.822 60.6575H257.951C258.088 60.6575 258.208 60.6145 258.311 60.5287C258.414 60.4257 258.5 60.3055 258.569 60.1681C258.655 60.0307 258.715 59.8848 258.749 59.7302C258.801 59.5757 258.827 59.4297 258.827 59.2924V45.5126C258.827 45.3924 258.801 45.255 258.749 45.1005C258.715 44.9459 258.655 44.8 258.569 44.6626C258.5 44.5252 258.414 44.4136 258.311 44.3278C258.208 44.2247 258.088 44.1732 257.951 44.1732H257.822V43.9156H267.738V46.311H267.481C267.446 45.9161 267.292 45.5727 267.017 45.2808C266.742 44.9717 266.313 44.8171 265.729 44.8171H260.552V51.3336H264.828C265.223 51.3336 265.549 51.2134 265.807 50.973C266.081 50.7326 266.219 50.4493 266.219 50.123H266.476V53.3426H266.219C266.219 53.0335 266.09 52.7674 265.832 52.5441C265.575 52.3209 265.24 52.2093 264.828 52.2093H260.552V60.0136H266.193C266.519 60.0136 266.803 59.9363 267.043 59.7817C267.283 59.6272 267.481 59.4469 267.635 59.2409C267.807 59.0176 267.927 58.7858 267.996 58.5454C268.082 58.2879 268.125 58.0732 268.125 57.9015H268.382V60.915H257.822V60.6575ZM270.272 43.9156H273.826V44.1732C273.706 44.1904 273.594 44.2419 273.491 44.3278C273.388 44.4136 273.337 44.5424 273.337 44.7141C273.337 44.8 273.362 44.8944 273.414 44.9974L277.277 51.7714L280.986 45.358C281.055 45.2207 281.098 45.1176 281.115 45.0489C281.149 44.9803 281.167 44.8944 281.167 44.7914C281.132 44.5166 281.029 44.3449 280.858 44.2762C280.703 44.2076 280.609 44.1732 280.574 44.1732V43.9156H283.33V44.1732C283.073 44.1732 282.806 44.3363 282.532 44.6626C282.274 44.9717 282.051 45.2893 281.862 45.6156L277.844 52.5699V59.2409C277.844 59.3782 277.861 59.5242 277.896 59.6787C277.947 59.8333 278.007 59.9878 278.076 60.1423C278.145 60.2797 278.23 60.3999 278.333 60.5029C278.436 60.606 278.557 60.6575 278.694 60.6575H278.823V60.915H275.14V60.6575H275.268C275.406 60.6575 275.526 60.6145 275.629 60.5287C275.732 60.4257 275.818 60.3055 275.887 60.1681C275.972 60.0136 276.032 59.859 276.067 59.7045C276.101 59.5328 276.118 59.3782 276.118 59.2409V52.8017L271.972 45.6929C271.886 45.5555 271.783 45.4009 271.662 45.2292C271.542 45.0575 271.413 44.8944 271.276 44.7399C271.139 44.5853 270.993 44.4565 270.838 44.3535C270.684 44.2333 270.538 44.1732 270.4 44.1732H270.272V43.9156Z" fill="#79655E"/>
<path fill-rule="evenodd" clip-rule="evenodd" d="M123.082 17H55.5C38.6553 17 25 30.6553 25 47.5C25 64.3447 38.6553 78 55.5 78H123.082V77H55.5C39.2076 77 26 63.7924 26 47.5C26 31.2076 39.2076 18 55.5 18H123.082V17ZM208.531 77H274.5C290.792 77 304 63.7924 304 47.5C304 31.2076 290.792 18 274.5 18H208.531V17H274.5C291.345 17 305 30.6553 305 47.5C305 64.3447 291.345 78 274.5 78H208.531V77Z" fill="white"/>
<path d="M164.267 0L161.885 4.514L159.58 9.028C161.232 12.1974 162.692 14.9442 164.325 18.056L169.069 9.028L166.63 4.514L164.267 0Z" fill="white"/>
<path d="M188.438 15.3863L188.207 15.2518L187.977 15.0981L187.727 14.9637L187.497 14.81L187.247 14.6756L187.016 14.5411L186.786 14.4066L186.536 14.2722L186.287 14.1377L186.056 14.0225L185.806 13.888L185.557 13.7536L185.326 13.6191L185.076 13.5038L184.827 13.3694L184.577 13.2541L184.327 13.1389L184.078 13.0236L183.828 12.8892L183.693 12.8315L181.484 17.6529L181.58 17.6913L181.811 17.7873L182.022 17.9026L182.253 18.0178L182.464 18.1139L182.675 18.2291L182.906 18.3444L183.117 18.4596L183.328 18.5557L183.54 18.6709L183.77 18.8054L183.981 18.9206L184.193 19.0359L184.404 19.1511L184.615 19.2664L184.827 19.4009L185.038 19.5161L185.249 19.6314L185.461 19.7658L185.672 19.9003L185.864 20.0155L188.63 15.5015L188.438 15.3863Z" fill="white"/>
<path d="M178.119 10.6799L177.85 10.603L177.581 10.5262L177.312 10.4302L177.043 10.3533L176.774 10.2957L176.486 10.2189L176.217 10.142L175.948 10.0652L175.68 10.0076L175.391 9.93074L175.123 9.85391L174.854 9.79628L174.565 9.73865L174.297 9.68103L174.008 9.60419L173.739 9.54657L173.451 9.50815L173.182 9.45053L173.029 9.41211L172.068 14.6176L172.184 14.6368L172.433 14.6945L172.683 14.7329L172.914 14.7905L173.163 14.8481L173.413 14.9057L173.663 14.9634L173.893 15.021L174.143 15.0594L174.393 15.1362L174.623 15.1939L174.873 15.2515L175.123 15.3283L175.353 15.386L175.584 15.4436L175.833 15.5204L176.064 15.5973L176.313 15.6549L176.544 15.7317L176.794 15.8085L176.89 15.847L178.484 10.7951L178.388 10.7759L178.119 10.6799Z" fill="white"/>
<path d="M155.504 9.39274L155.216 9.45037L154.928 9.50799L154.659 9.54641L154.371 9.60404L154.102 9.68087L153.814 9.7385L153.545 9.79612L153.257 9.85375L152.988 9.93058L152.719 10.0074L152.45 10.065L152.162 10.1419L151.893 10.2187L151.624 10.2955L151.355 10.3532L151.086 10.43L150.817 10.526L150.529 10.6029L150.279 10.6797L150.164 10.7181L151.758 15.77L151.835 15.7316L152.085 15.6547L152.315 15.5971L152.546 15.5203L152.796 15.4434L153.045 15.3858L153.276 15.3282L153.526 15.2513L153.756 15.1937L154.006 15.1361L154.236 15.0593L154.486 15.0208L154.736 14.9632L154.985 14.9056L155.216 14.848L155.466 14.7903L155.715 14.7327L155.965 14.6943L156.215 14.6367L156.445 14.5983L156.58 14.579L155.619 9.37354L155.504 9.39274Z" fill="white"/>
<path d="M144.841 12.7738L144.591 12.889L144.341 13.0235L144.091 13.1387L143.842 13.254L143.592 13.3692L143.342 13.5037L143.093 13.6189L142.843 13.7534L142.612 13.8879L142.363 14.0223L142.113 14.1376L141.882 14.272L141.633 14.4065L141.402 14.541L141.153 14.6754L140.922 14.8099L140.672 14.9635L140.442 15.098L140.211 15.2517L140 15.3669L142.785 19.8809L142.958 19.7657L143.169 19.6312L143.361 19.516L143.573 19.4007L143.784 19.2662L143.995 19.151L144.226 19.0357L144.437 18.9205L144.648 18.8052L144.86 18.6708L145.071 18.5555L145.282 18.4595L145.513 18.3442L145.724 18.229L145.935 18.1137L146.166 18.0177L146.377 17.9024L146.608 17.7872L146.819 17.6911L147.05 17.5951L147.165 17.5375L144.956 12.7354L144.841 12.7738Z" fill="white"/>
<path d="M164.921 98.7568L163.164 95.4263L161.463 92.0958C162.682 89.7574 163.759 87.7307 164.964 85.4348L168.464 92.0958L166.664 95.4263L164.921 98.7568Z" fill="white"/>
<path d="M182.566 87.4046L182.396 87.5038L182.226 87.6172L182.041 87.7164L181.871 87.8298L181.687 87.929L181.517 88.0282L181.347 88.1274L181.163 88.2266L180.978 88.3258L180.808 88.4109L180.624 88.5101L180.44 88.6093L180.27 88.7085L180.086 88.7935L179.901 88.8927L179.717 88.9778L179.533 89.0628L179.349 89.1478L179.164 89.247L179.065 89.2896L177.435 85.7323L177.506 85.7039L177.676 85.6331L177.832 85.548L178.002 85.463L178.158 85.3921L178.314 85.3071L178.484 85.2221L178.64 85.137L178.796 85.0662L178.952 84.9811L179.122 84.8819L179.278 84.7969L179.434 84.7119L179.59 84.6268L179.745 84.5418L179.901 84.4426L180.057 84.3576L180.213 84.2725L180.369 84.1733L180.525 84.0741L180.667 83.9891L182.707 87.3196L182.566 87.4046Z" fill="white"/>
<path d="M174.942 90.8771L174.743 90.9338L174.545 90.9905L174.346 91.0614L174.148 91.1181L173.95 91.1606L173.737 91.2173L173.539 91.2739L173.34 91.3306L173.142 91.3732L172.929 91.4298L172.731 91.4865L172.532 91.5291L172.32 91.5716L172.121 91.6141L171.909 91.6708L171.71 91.7133L171.498 91.7416L171.299 91.7842L171.186 91.8125L170.477 87.9718L170.562 87.9576L170.747 87.9151L170.931 87.8868L171.101 87.8442L171.285 87.8017L171.469 87.7592L171.654 87.7167L171.824 87.6742L172.008 87.6458L172.192 87.5891L172.362 87.5466L172.546 87.5041L172.731 87.4474L172.901 87.4049L173.071 87.3624L173.255 87.3057L173.425 87.249L173.609 87.2065L173.779 87.1498L173.964 87.0931L174.035 87.0648L175.211 90.7921L175.14 90.8063L174.942 90.8771Z" fill="white"/>
<path d="M158.756 91.8266L158.544 91.7841L158.331 91.7416L158.133 91.7133L157.92 91.6708L157.722 91.6141L157.509 91.5715L157.311 91.529L157.098 91.4865L156.9 91.4298L156.701 91.3731L156.503 91.3306L156.29 91.2739L156.092 91.2172L155.894 91.1605L155.695 91.118L155.497 91.0613L155.298 90.9905L155.086 90.9338L154.901 90.8771L154.816 90.8488L155.993 87.1214L156.049 87.1498L156.234 87.2065L156.404 87.249L156.574 87.3057L156.758 87.3623L156.942 87.4049L157.112 87.4474L157.297 87.5041L157.467 87.5466L157.651 87.5891L157.821 87.6458L158.005 87.6741L158.189 87.7167L158.374 87.7592L158.544 87.8017L158.728 87.8442L158.912 87.8867L159.096 87.9151L159.281 87.9576L159.451 87.9859L159.55 88.0001L158.841 91.8408L158.756 91.8266Z" fill="white"/>
<path d="M150.862 89.3325L150.678 89.2475L150.494 89.1483L150.31 89.0632L150.125 88.9782L149.941 88.8932L149.757 88.7939L149.573 88.7089L149.389 88.6097L149.218 88.5105L149.034 88.4113L148.85 88.3263L148.68 88.227L148.496 88.1278L148.326 88.0286L148.141 87.9294L147.971 87.8302L147.787 87.7168L147.617 87.6176L147.447 87.5043L147.291 87.4192L149.346 84.0887L149.474 84.1737L149.629 84.273L149.771 84.358L149.927 84.443L150.083 84.5422L150.239 84.6273L150.409 84.7123L150.565 84.7973L150.721 84.8824L150.877 84.9816L151.033 85.0666L151.188 85.1375L151.358 85.2225L151.514 85.3075L151.67 85.3926L151.84 85.4634L151.996 85.5485L152.166 85.6335L152.322 85.7044L152.492 85.7752L152.577 85.8177L150.947 89.3608L150.862 89.3325Z" fill="white"/>
</svg>
